    <svg width="178" height="141" viewBox="0 0 178 141" fill="none" xmlns="http://www.w3.org/2000/svg">
        <path d="M81.497 2.03657C86.3094 0.088916 91.6906 0.0889184 96.503 2.03657L164.838 29.6923C172.391 32.7493 177.335 40.0831 177.335 48.2316V92.7684C177.335 100.917 172.391 108.251 164.838 111.308L96.503 138.963C91.6906 140.911 86.3094 140.911 81.497 138.963L13.1623 111.308C5.60896 108.251 0.665405 100.917 0.665405 92.7684V48.2316C0.665405 40.0831 5.60897 32.7493 13.1624 29.6923L81.497 2.03657Z" fill="#d41367"/>
        <path d="M84.7752 13.495C87.1657 12.5355 89.8343 12.5355 92.2248 13.495L155.725 38.9814C159.516 40.5029 162 44.177 162 48.2618V93.7382C162 97.823 159.516 101.497 155.725 103.019L92.2248 128.505C89.8343 129.464 87.1657 129.464 84.7752 128.505L21.2752 103.019C17.4844 101.497 15 97.823 15 93.7382V48.2618C15 44.177 17.4844 40.5029 21.2752 38.9814L84.7752 13.495Z" fill="#26011f"/>
        <path d="M52.5 39.6406C69.7969 39.6406 84 53.7031 84 71.1406C84 88.4375 69.7969 102.641 52.5 102.641H34.5C31.9688 102.641 30 100.531 30 98.1406V44.1406C30 41.6094 31.9688 39.6406 34.5 39.6406H52.5ZM52.5 93.5C64.875 93.5 75 83.2344 75 71C75 58.625 64.875 48.5 52.5 48.5H39V93.5H52.5ZM88.3594 44C92.7188 39.5 99.8906 39.5 114.234 39.5H116.625C130.969 39.5 138.141 39.5 142.5 44C147 48.3594 147 55.5312 147 69.875V72.2656C147 86.6094 147 93.7812 142.5 98.1406C138.141 102.5 130.969 102.5 116.625 102.5H114.234C99.8906 102.5 92.7188 102.5 88.3594 98.1406C84 93.7812 84 86.6094 84 72.2656V69.875C84 55.5312 84 48.3594 88.3594 44ZM94.5469 58.7656C94.9688 75.0781 103.125 84.9219 117.469 84.9219H118.312V75.6406C120.844 75.9219 123.234 76.9062 125.062 78.5938C127.031 80.2812 128.438 82.5312 129.141 84.9219H136.594C135.891 82.1094 134.484 79.4375 132.656 77.1875C130.688 74.9375 128.438 73.1094 125.766 71.8438C128.156 70.4375 130.125 68.4688 131.812 66.2188C133.359 63.9688 134.484 61.4375 135.047 58.7656H128.297C126.75 63.9688 122.391 68.6094 118.312 69.0312V58.7656H111.562V76.9062C107.344 75.7812 102 70.7188 101.719 58.7656H94.5469Z" fill="#d41367"/>
    </svg>
